:SAMPLES-PER-SECOND 30
:FRAME-RANGE 1-3358
:FULLY-SPECIFIED
:DEGREES
1050
root  -7.753 39.4903 6.26809 -179.664 8.59695 -178.832
RightUpLeg  -12.5717 -1.65035 -3.03233
RightLeg  14.0005 -3.41886 -1.86821
RightFoot  -2.22164 -0.607415 7.4153
RightToes  -5.8209e-011 0 -3.6325e-017
Spine  9.44091 1.84915 7.72003
Spine1  -1.62095 4.28256 -10.1963
HEad  1.9882 -32.1003 2.76462
LeftShoulder1  1.0701 0.483845 -29.3477
LeftArm  2.81127 19.0216 -25.4916
LeftForeArm  6.67413 -8.45701 -14.8776
LeftHand  0.577963 -1.92411 -9.02192
RightShoulder  7.30325 19.4658 25.6002
RightArm  -25.4581 20.1001 3.06842
RightForeArm  25.5496 2.38566 10.8204
RightHand  -0.521797 6.17582 -5.56096
LeftUpLeg  -9.93284 4.68282 5.86844
LeftLeg  20.1847 -7.76348 -2.82531
LeftFoot  -11.4108 0.064272 -6.64619
LeftToes  -4.03819e-010 -8.71445e-011 8.52097e-011
1051
root  -7.77787 39.5216 6.23353 -179.672 10.2085 -179.037
RightUpLeg  -12.653 0.0395904 -3.18207
RightLeg  13.7291 -3.52649 -1.93983
RightFoot  -2.12908 -0.627005 7.59067
RightToes  -5.8209e-011 0 -3.6325e-017
Spine  9.6582 1.50128 5.99547
Spine1  -1.77436 3.69538 -9.64497
HEad  1.11637 -30.9808 3.51156
LeftShoulder1  1.07361 0.496725 -29.6205
LeftArm  2.03279 19.912 -25.5994
LeftForeArm  7.5117 -7.50743 -15.2486
LeftHand  0.587403 -1.83124 -9.2984
RightShoulder  6.49533 18.325 23.4804
RightArm  -26.4387 19.8674 2.28498
RightForeArm  28.9292 1.16876 10.1114
RightHand  -0.689031 6.97828 -6.80153
LeftUpLeg  -9.21647 3.98368 5.37031
LeftLeg  19.1905 -5.09299 -1.64059
LeftFoot  -10.6592 0.0970434 -5.57441
LeftToes  -4.03819e-010 -8.71445e-011 8.52097e-011
1052
root  -7.85558 39.5804 6.20707 -179.821 11.2159 -179.656
RightUpLeg  -12.5394 0.498074 -3.8123
RightLeg  13.3335 -3.07619 -1.99159
RightFoot  -2.2878 -0.664311 8.17947
RightToes  -5.8209e-011 0 -3.6325e-017
Spine  9.83578 1.11485 4.64786
Spine1  -1.65887 3.19914 -9.52462
HEad  0.280311 -30.476 4.42377
LeftShoulder1  1.14401 0.323924 -29.9012
LeftArm  0.744962 18.9202 -25.5033
LeftForeArm  9.2152 -5.40875 -15.9468
LeftHand  0.565637 -1.66206 -9.1814
RightShoulder  5.53097 17.0649 20.4531
RightArm  -27.2552 19.3849 1.15266
RightForeArm  31.8927 -0.0715112 9.48618
RightHand  -0.815831 7.36283 -7.76201
LeftUpLeg  -8.42514 2.95474 4.35483
LeftLeg  17.8642 -2.9391 -0.706635
LeftFoot  -9.38158 0.132959 -4.48488
LeftToes  -4.03819e-010 -8.71445e-011 8.52097e-011
1053
root  -7.93687 39.6607 6.12491 -179.653 12.6864 -179.939
RightUpLeg  -12.2741 0.400798 -4.16733
RightLeg  12.2206 -1.80786 -1.73345
RightFoot  -3.2105 -0.747342 10.1806
RightToes  -5.8209e-011 0 -3.6325e-017
Spine  9.43348 1.07812 4.3359
Spine1  -1.52883 3.28883 -10.3984
HEad  0.0831556 -30.2476 4.49043
LeftShoulder1  1.21138 0.147318 -30.0195
LeftArm  -0.440421 17.7137 -25.3751
LeftForeArm  10.9221 -4.30158 -16.1383
LeftHand  0.559319 -1.62208 -9.13351
RightShoulder  4.49117 15.7859 16.5719
RightArm  -28.0314 19.2442 -0.317741
RightForeArm  34.2494 -1.75445 8.89707
RightHand  -0.802518 7.45071 -7.59338
LeftUpLeg  -7.51917 4.22828 3.93453
LeftLeg  16.316 -2.79023 -0.474489
LeftFoot  -9.17666 0.144175 -4.71876
LeftToes  -4.03819e-010 -8.71445e-011 8.52097e-011
1054
root  -8.03131 39.6958 6.02982 -179.207 14.6752 179.821
RightUpLeg  -12.5019 -0.211608 -4.71005
RightLeg  11.4933 -0.390586 -1.18476
RightFoot  -4.90528 -0.77335 13.1046
RightToes  -5.8209e-011 0 -3.6325e-017
Spine  9.25943 1.13612 4.51133
Spine1  -2.28688 3.52253 -11.7984
HEad  0.453594 -29.9667 3.86484
LeftShoulder1  1.21531 0.151824 -30.1873
LeftArm  0.902694 17.3026 -24.8745
LeftForeArm  10.0818 -5.70557 -15.7864
LeftHand  0.567333 -1.79038 -9.03187
RightShoulder  3.48214 14.9345 11.7462
RightArm  -29.4597 19.3423 -1.55224
RightForeArm  36.2324 -3.25557 8.13875
RightHand  -0.704275 8.29925 -6.33149
LeftUpLeg  -7.01712 7.14564 3.8723
LeftLeg  15.2607 -3.58113 -1.02668
LeftFoot  -9.38003 0.140321 -4.91219
LeftToes  -4.03819e-010 -8.71445e-011 8.52097e-011
1055
root  -8.11838 39.727 5.921 -178.627 16.4927 179.722
RightUpLeg  -13.7481 -2.30697 -4.92808
RightLeg  13.3498 -4.76136 -1.71624
RightFoot  -6.20307 -0.491454 9.98533
RightToes  -5.8209e-011 0 -3.6325e-017
Spine  9.07611 1.1499 5.19268
Spine1  -2.87894 3.70581 -12.9434
HEad  -0.082702 -29.8584 3.41059
LeftShoulder1  1.18895 0.236953 -30.3256
LeftArm  2.49415 16.7083 -24.1872
LeftForeArm  8.51446 -7.68509 -15.1318
LeftHand  0.576602 -2.07152 -8.80856
RightShoulder  2.49367 14.6286 6.00894
RightArm  -29.4573 19.478 -2.68322
RightForeArm  38.6302 -4.60446 7.89688
RightHand  -0.571958 8.60499 -5.11424
LeftUpLeg  -6.65441 9.01668 4.11464
LeftLeg  14.3483 -3.66809 -1.73422
LeftFoot  -9.87533 0.133825 -5.83386
LeftToes  -4.03819e-010 -8.71445e-011 8.52097e-011
1056
root  -8.11954 39.6946 5.76516 -178.436 18.0097 179.333
RightUpLeg  -15.3862 -7.15943 -4.78761
RightLeg  19.6625 -12.3663 -5.05677
RightFoot  -8.57272 -0.309938 10.3802
RightToes  -5.8209e-011 0 -3.6325e-017
Spine  8.73547 1.124 6.28179
Spine1  -2.71137 4.076 -14.9786
HEad  -1.63367 -30.0069 3.57259
LeftShoulder1  1.2226 0.148071 -30.366
LeftArm  3.82323 15.3044 -23.1387
LeftForeArm  6.13105 -9.59846 -14.3479
LeftHand  0.566661 -2.16387 -8.53988
RightShoulder  1.55082 14.7382 0.0555575
RightArm  -29.3108 19.535 -3.88861
RightForeArm  42.3765 -6.42833 7.50636
RightHand  -0.484264 8.62861 -4.38367
LeftUpLeg  -6.31809 9.38037 3.93702
LeftLeg  14.1728 -2.5736 -1.92606
LeftFoot  -10.6079 0.10332 -6.21465
LeftToes  -4.03819e-010 -8.71445e-011 8.52097e-011
1057
root  -8.01065 39.6818 5.53182 -178.483 19.6332 178.777
RightUpLeg  -16.2042 -6.70868 -5.27032
RightLeg  25.0453 -9.94445 -5.24562
RightFoot  -5.43754 -0.501269 8.98353
RightToes  -5.8209e-011 0 -3.6325e-017
Spine  8.27972 1.32753 7.52203
Spine1  -2.52826 4.71364 -17.2927
HEad  -2.68345 -30.3735 3.49255
LeftShoulder1  1.23005 0.129982 -30.3923
LeftArm  4.9125 13.3017 -21.4761
LeftForeArm  4.40045 -10.9961 -13.6882
LeftHand  0.553477 -2.23712 -8.25095
RightShoulder  0.707479 15.0436 -5.3024
RightArm  -29.3162 19.5386 -4.94405
RightForeArm  44.1905 -6.76972 7.4376
RightHand  -0.347474 8.64197 -3.25285
LeftUpLeg  -5.40168 9.34241 3.69286
LeftLeg  13.5256 -1.13316 -1.99357
LeftFoot  -11.0513 0.0830545 -6.67146
LeftToes  -4.03819e-010 -8.71445e-011 8.52097e-011
1058
root  -7.73229 39.6275 5.1848 -178.388 20.8579 178.358
RightUpLeg  -13.6429 -2.71404 -5.89714
RightLeg  22.1094 -7.73368 -3.65129
RightFoot  -7.14365 -0.455593 11.0688
RightToes  -5.8209e-011 0 -3.6325e-017
Spine  7.02819 1.60561 8.41659
Spine1  -2.22231 5.31155 -19.3476
HEad  -2.45167 -30.7044 3.0432
LeftShoulder1  1.1551 0.315229 -30.1543
LeftArm  5.02163 11.4019 -19.7056
LeftForeArm  3.98985 -11.9931 -13.075
LeftHand  0.539695 -2.41624 -7.84102
RightShoulder  -0.0575557 15.3356 -10.0269
RightArm  -29.2085 20.3157 -5.34281
RightForeArm  46.1526 -6.73454 7.51476
RightHand  -0.105063 8.25738 -1.272
LeftUpLeg  -4.65092 9.47287 3.76107
LeftLeg  13.3933 -0.245762 -2.10654
LeftFoot  -11.8376 0.0395702 -7.21394
LeftToes  -4.03819e-010 -8.71445e-011 8.52097e-011
1059
root  -7.43084 39.6609 4.8077 -177.699 21.0536 178.129
RightUpLeg  -11.4821 -4.0516 -5.75064
RightLeg  17.8208 -7.13605 -2.76489
RightFoot  -8.51711 -0.300904 9.82865
RightToes  -5.8209e-011 0 -3.6325e-017
Spine  5.4026 1.8739 9.66219
Spine1  -2.27455 5.73907 -20.6496
HEad  -1.52618 -31.7667 2.38217
LeftShoulder1  1.111 0.413435 -29.8734
LeftArm  6.58893 9.4056 -17.9072
LeftForeArm  1.83761 -13.6318 -12.1335
LeftHand  0.55604 -2.51941 -7.96896
RightShoulder  -0.768713 15.7521 -14.2521
RightArm  -29.3385 20.5401 -5.62988
RightForeArm  47.9302 -6.68808 7.50883
RightHand  0.052775 9.12598 0.0248973
LeftUpLeg  -4.25298 9.5562 3.7704
LeftLeg  12.4592 -0.27388 -2.0614
LeftFoot  -11.7923 0.03918 -7.96061
LeftToes  -4.03819e-010 -8.71445e-011 8.52097e-011
1060
root  -7.2131 39.6621 4.55833 -176.754 21.0668 178.679
RightUpLeg  -11.7393 -5.09867 -4.92647
RightLeg  17.614 -6.43014 -2.48856
RightFoot  -8.56081 -0.280527 9.13696
RightToes  -5.8209e-011 0 -3.6325e-017
Spine  5.23325 2.22211 12.2653
Spine1  -3.13904 6.35302 -22.548
HEad  -2.75725 -33.4934 2.43511
LeftShoulder1  1.05647 0.570629 -29.9395
LeftArm  8.44663 6.45004 -16.5147
LeftForeArm  -1.16635 -15.4259 -11.0084
LeftHand  0.57958 -2.56302 -8.26409
RightShoulder  -1.43206 15.3419 -18.377
RightArm  -28.9028 20.9562 -5.8205
RightForeArm  50.9567 -6.61724 7.58067
RightHand  0.227359 8.92136 1.44553
LeftUpLeg  -5.18456 10.8797 4.2164
LeftLeg  13.5344 -1.72453 -1.66986
LeftFoot  -11.7706 0.0394883 -8.24423
LeftToes  -4.03819e-010 -8.71445e-011 8.52097e-011
1061
root  -6.99804 39.6431 4.38178 -176.186 20.4142 179.244
RightUpLeg  -11.8204 -6.39562 -4.28584
RightLeg  18.0074 -5.32154 -2.13526
RightFoot  -8.74035 -0.27735 9.57229
RightToes  -5.8209e-011 0 -3.6325e-017
Spine  5.61193 2.22851 13.3987
Spine1  -3.50449 6.50531 -23.2763
HEad  -5.96744 -34.8031 3.74394
LeftShoulder1  1.05195 0.555082 -29.5914
LeftArm  10.5848 4.74306 -16.1976
LeftForeArm  -4.6793 -18.4107 -8.64311
LeftHand  0.59058 -2.72787 -8.23895
RightShoulder  -1.91539 14.6767 -21.7232
RightArm  -28.6988 21.0258 -6.40147
RightForeArm  52.4892 -6.59436 7.71209
RightHand  0.372755 8.88663 2.62834
LeftUpLeg  -7.30443 13.467 4.84618
LeftLeg  17.3013 -5.48954 -1.84643
LeftFoot  -11.3176 0.0696456 -9.57582
LeftToes  -4.03819e-010 -8.71445e-011 8.52097e-011
